<svg width="472" height="436" viewBox="0 0 472 436" fill="none" xmlns="http://www.w3.org/2000/svg">
<path d="M11.8423 87.876C11.8423 61.9638 20.3011 40.5582 37.2187 23.6589C53.0084 7.88635 73.8734 1.79558e-05 99.8136 2.02236e-05C125.754 2.24913e-05 147.183 9.01298 164.1 27.0388C181.018 45.0647 189.477 71.5401 189.477 106.465C189.477 150.403 175.943 201.664 148.875 260.248C120.679 318.832 82.8961 377.416 35.5269 436L-1.63314e-05 403.891C34.9629 357.7 60.3393 316.015 76.129 278.837C91.9188 242.785 100.941 208.424 103.197 175.752L99.8136 175.752C73.8734 175.752 53.0084 167.302 37.2187 150.403C20.3011 134.63 11.8423 113.788 11.8423 87.876ZM296.057 87.876C296.057 61.9639 303.952 40.5582 319.742 23.659C335.532 7.88637 356.397 4.26548e-05 382.337 4.49225e-05C408.277 4.71903e-05 429.706 9.013 446.624 27.0388C463.541 45.0647 472 71.5401 472 106.465C472 150.403 458.466 201.664 431.398 260.248C404.33 318.832 367.111 377.416 319.742 436L282.523 403.891C317.486 357.7 343.427 316.016 360.344 278.837C376.134 242.785 385.157 208.424 387.412 175.752L382.337 175.752C356.397 175.752 335.532 167.302 319.742 150.403C303.952 134.631 296.057 113.788 296.057 87.876Z" fill="#161616"/>
</svg>
