<?xml version="1.0" encoding="UTF-8"?>
<svg id="Layer_1" data-name="Layer 1" xmlns="http://www.w3.org/2000/svg" xmlns:xlink="http://www.w3.org/1999/xlink" viewBox="0 0 24 24">
  <defs>
    <style>
      .cls-1 {
        fill: none;
      }

      .cls-2 {
        clip-path: url(#clippath);
      }

      .cls-3 {
        fill: #695003;
      }

      .cls-4 {
        fill: #ff1616;
      }

      .cls-5 {
        fill: #ffce31;
      }

      .cls-6 {
        clip-path: url(#clippath-1);
      }

      .cls-7 {
        clip-path: url(#clippath-4);
      }

      .cls-8 {
        clip-path: url(#clippath-3);
      }

      .cls-9 {
        clip-path: url(#clippath-2);
      }

      .cls-10 {
        clip-path: url(#clippath-5);
      }

      .cls-11 {
        fill: #ffde59;
        fill-rule: evenodd;
      }
    </style>
    <clipPath id="clippath">
      <rect class="cls-1" x="1.9" width="20.2" height="24"/>
    </clipPath>
    <clipPath id="clippath-1">
      <polygon class="cls-1" points="-5.1 17 5.6 -3.6 26 7 15.4 27.7 -5.1 17"/>
    </clipPath>
    <clipPath id="clippath-2">
      <polygon class="cls-1" points="-5.1 17 5.6 -3.6 26 7 15.4 27.7 -5.1 17"/>
    </clipPath>
    <clipPath id="clippath-3">
      <rect class="cls-1" x="19.5" y="6" width="2.2" height="2"/>
    </clipPath>
    <clipPath id="clippath-4">
      <polygon class="cls-1" points="-5.1 17 5.6 -3.6 26 7 15.4 27.7 -5.1 17"/>
    </clipPath>
    <clipPath id="clippath-5">
      <polygon class="cls-1" points="-5.1 17 5.6 -3.6 26 7 15.4 27.7 -5.1 17"/>
    </clipPath>
  </defs>
  <rect width="24" height="24"/>
  <g>
    <g class="cls-2">
      <g class="cls-6">
        <g class="cls-9">
          <path class="cls-11" d="m2.1,3.5c0,0,0-.2,0-.2C5.6,0,11-.8,15.5,1.5c1.9,1,3.4,2.4,4.5,4.1,0,0,0,.2,0,.2,0,0-.2,0-.2,0-1.1-1.6-2.5-3-4.4-4C11-.5,5.8.3,2.3,3.5c0,0-.2,0-.2,0Zm5.8,20.1c0,0,0-.1.2-.1,4.9.9,9.9-1.4,12.3-6.1,1.5-2.9,1.6-6.1.7-9,0,0,0-.2,0-.2,0,0,.2,0,.2,0,1,2.9.8,6.3-.7,9.2-2.4,4.8-7.7,7.1-12.6,6.2,0,0-.1,0-.1-.2Z"/>
        </g>
      </g>
    </g>
    <g class="cls-8">
      <g class="cls-7">
        <g class="cls-10">
          <path class="cls-11" d="m20,6.7c-.2.3,0,.7.3.8s.7,0,.8-.3,0-.7-.3-.8c-.3-.2-.7,0-.8.3Zm.1,1.1c-.5-.2-.6-.8-.4-1.3s.8-.6,1.3-.4.6.8.4,1.3c-.2.5-.8.6-1.3.4Z"/>
        </g>
      </g>
    </g>
    <path class="cls-3" d="m14.1,6.4l-.2-.7s.7-1.1.5-1.3c-.3-.2-1.1.8-1.1.8h-.8s-.8-1-1.1-.8c-.3.2.5,1.3.5,1.3l-.2.7s-1.3.4-1.1.8c.1.3,1.4,0,1.4,0l.6.4s0,1.3.4,1.3.4-1.3.4-1.3l.6-.4s1.3.4,1.4,0-1.1-.8-1.1-.8"/>
    <path class="cls-5" d="m13.7,4.6c0,.9-.4,1.6-.9,1.6s-.9-.7-.9-1.6.6-.4.9-.4.9-.5.9.4"/>
    <path class="cls-5" d="m11.1,5.2c.9.3,1.4.8,1.3,1.3-.1.4-1,.6-1.8.3-.9-.3-.2-.7,0-.9s-.2-.9.6-.7"/>
    <path class="cls-5" d="m10.9,7.7c.5-.7,1.3-1,1.7-.8.4.3.3,1.1-.3,1.8-.5.7-.7,0-.9-.2-.2-.1-1,0-.5-.8"/>
    <path class="cls-5" d="m13.3,8.6c-.5-.7-.6-1.5-.3-1.8.4-.3,1.1,0,1.7.8.5.7-.3.7-.5.8-.2.1-.4.9-.9.2"/>
    <path class="cls-5" d="m15,6.7c-.9.3-1.7.1-1.8-.3s.4-1,1.3-1.3c.9-.3.6.5.6.7,0,.2.8.6,0,.9"/>
    <path class="cls-4" d="m13.1,6.6s0,0,0,.1c0,0,0,0,0,.1s0,0-.1,0c0,0,0,0-.1,0s0,0-.1,0c0,0,0,0-.1,0s0,0,0-.1c0,0,0,0,0-.1s0,0,0-.1c0,0,0,0,0-.1,0,0,0,0,.1,0,0,0,0,0,.1,0s0,0,.1,0c0,0,0,0,.1,0,0,0,0,0,0,.1,0,0,0,0,0,.1Z"/>
  </g>
</svg>